<svg width="207" height="20" viewBox="0 0 207 20" fill="none" xmlns="http://www.w3.org/2000/svg">
<path d="M35.5351 14.0123L34.1542 18.2225H32.3691L36.9161 4.88455H39.0044L43.5514 18.2225H41.6989L40.2843 14.0123H35.5351ZM39.9138 12.665L38.6002 8.8253C38.297 7.94958 38.0949 7.1749 37.8929 6.40022H37.8592C37.6571 7.20858 37.455 8.01694 37.1855 8.8253L35.872 12.6987H39.9138V12.665Z" fill="white"/>
<path d="M46.5532 5.01734C47.3952 4.88261 48.4731 4.74788 49.854 4.74788C51.5718 4.74788 52.818 5.15206 53.5927 5.85938C54.3337 6.49933 54.7715 7.47609 54.7715 8.65495C54.7715 9.86749 54.401 10.8106 53.7274 11.5179C52.818 12.4947 51.336 12.9999 49.6519 12.9999C49.1467 12.9999 48.6751 12.9662 48.271 12.8651V18.2205H46.5532V5.01734ZM48.271 11.4505C48.6415 11.5516 49.113 11.5852 49.6856 11.5852C51.7738 11.5852 53.0201 10.5748 53.0201 8.72231C53.0201 6.97087 51.7738 6.09515 49.854 6.09515C49.113 6.09515 48.5404 6.16251 48.2373 6.22987V11.4505H48.271Z" fill="white"/>
<path d="M57.798 5.01734C58.64 4.88261 59.7178 4.74788 61.0988 4.74788C62.8165 4.74788 64.0627 5.15206 64.8374 5.85938C65.5784 6.49933 66.0163 7.47609 66.0163 8.65495C66.0163 9.86749 65.6458 10.8106 64.9721 11.5179C64.0627 12.4947 62.5808 12.9999 60.8967 12.9999C60.3914 12.9999 59.9199 12.9662 59.5157 12.8651V18.2205H57.798V5.01734ZM59.5494 11.4505C59.9199 11.5516 60.3914 11.5852 60.964 11.5852C63.0523 11.5852 64.2985 10.5748 64.2985 8.72231C64.2985 6.97087 63.0523 6.09515 61.1324 6.09515C60.3914 6.09515 59.8189 6.16251 59.5157 6.22987V11.4505H59.5494Z" fill="white"/>
<path d="M70.8355 4.8492V16.7725H76.5277V18.2208H69.084V4.8492H70.8355Z" fill="white"/>
<path d="M80.8371 4.8492V18.1871H79.1193V4.8492H80.8371Z" fill="white"/>
<path d="M91.5826 11.956H86.3956V16.7725H92.1888V18.2208H84.6778V4.8492H91.8857V6.29751H86.3956V10.5077H91.5826V11.956Z" fill="white"/>
<path d="M95.0834 5.01734C96.1275 4.84893 97.3738 4.74788 98.7547 4.74788C101.247 4.74788 102.999 5.32047 104.177 6.39828C105.356 7.47609 106.064 9.02545 106.064 11.1811C106.064 13.3704 105.39 15.1555 104.144 16.368C102.898 17.6143 100.843 18.2879 98.2495 18.2879C97.037 18.2879 95.9928 18.2205 95.1171 18.1195V5.01734H95.0834ZM96.8012 16.8396C97.239 16.9069 97.879 16.9406 98.5526 16.9406C102.224 16.9406 104.245 14.886 104.245 11.2821C104.278 8.11604 102.493 6.12883 98.8221 6.12883C97.9463 6.12883 97.2727 6.19619 96.8012 6.29724V16.8396Z" fill="white"/>
<path d="M116.168 4.8492V18.1871H114.45V4.8492H116.168Z" fill="white"/>
<path d="M120.042 18.2208V4.8492H121.928L126.206 11.6192C127.182 13.1686 127.957 14.5832 128.597 15.9641L128.631 15.9304C128.462 14.1453 128.429 12.5286 128.429 10.4403V4.8492H130.045V18.1871H128.328L124.084 11.4171C123.141 9.93512 122.265 8.41945 121.591 6.97114L121.524 7.00482C121.625 8.6889 121.659 10.3056 121.659 12.5286V18.2208H120.042Z" fill="white"/>
<path d="M136.444 6.33119H132.369V4.8492H142.271V6.33119H138.196V18.2208H136.444V6.33119Z" fill="white"/>
<path d="M151.502 11.956H146.315V16.7725H152.109V18.2208H144.598V4.8492H151.805V6.29751H146.315V10.5077H151.502V11.956Z" fill="white"/>
<path d="M156.755 4.8492V16.7725H162.447V18.2208H155.003V4.8492H156.755Z" fill="white"/>
<path d="M166.926 4.8492V16.7725H172.619V18.2208H165.175V4.8492H166.926Z" fill="white"/>
<path d="M182.219 11.956H177.032V16.7725H182.825V18.2208H175.314V4.8492H182.522V6.29751H177.032V10.5077H182.219V11.956Z" fill="white"/>
<path d="M194.947 17.783C194.307 18.0861 193.061 18.4229 191.411 18.4229C187.639 18.4229 184.809 16.0316 184.809 11.6529C184.809 7.47643 187.639 4.64718 191.781 4.64718C193.432 4.64718 194.51 5.01767 194.947 5.25344L194.543 6.66807C193.903 6.36494 192.96 6.12917 191.849 6.12917C188.716 6.12917 186.628 8.11638 186.628 11.6529C186.628 14.9201 188.514 17.0083 191.748 17.0083C192.792 17.0083 193.87 16.8062 194.577 16.4694L194.947 17.783Z" fill="white"/>
<path d="M200.373 6.33119H196.298V4.8492H206.2V6.33119H202.125V18.2208H200.373V6.33119Z" fill="white"/>
<path d="M24.9578 0H20.074V0.336816H24.9578V0Z" fill="white"/>
<path d="M24.9576 1.04413H20.0738V1.41463H24.9576V1.04413Z" fill="white"/>
<path d="M24.9576 2.05461H20.0738V2.49247H24.9576V2.05461Z" fill="white"/>
<path d="M24.9576 3.09922H20.0738V3.60445H24.9576V3.09922Z" fill="white"/>
<path d="M24.9576 4.1419H20.0738V4.71448H24.9576V4.1419Z" fill="white"/>
<path d="M19.1985 0L0 19.1985H6.90473L13.7084 12.3948V19.1985H19.1985V0Z" fill="white"/>
<path d="M24.9578 5.12006H20.074V19.2326H24.9578V5.12006Z" fill="white"/>
</svg>
