<svg width="120" height="28" viewBox="0 0 120 28" fill="none" xmlns="http://www.w3.org/2000/svg">
<path d="M1.44 19V8.504H4.432C5.22133 8.504 5.90933 8.60533 6.496 8.808C7.08267 9 7.54133 9.32 7.872 9.768C8.20267 10.216 8.368 10.824 8.368 11.592C8.368 12.328 8.20267 12.936 7.872 13.416C7.552 13.8853 7.09867 14.2427 6.512 14.488C5.936 14.7227 5.264 14.84 4.496 14.84H2.768V19H1.44ZM2.768 13.752H4.336C5.25333 13.752 5.93067 13.576 6.368 13.224C6.816 12.872 7.04 12.328 7.04 11.592C7.04 10.8347 6.80533 10.312 6.336 10.024C5.87733 9.72533 5.18933 9.576 4.272 9.576H2.768V13.752ZM13.0079 19.192C12.3785 19.192 11.7865 19.032 11.2319 18.712C10.6879 18.392 10.2452 17.928 9.90388 17.32C9.57321 16.712 9.40788 15.9813 9.40788 15.128C9.40788 14.2533 9.57321 13.512 9.90388 12.904C10.2452 12.296 10.6879 11.832 11.2319 11.512C11.7865 11.192 12.3785 11.032 13.0079 11.032C13.6479 11.032 14.2399 11.192 14.7839 11.512C15.3279 11.832 15.7652 12.296 16.0959 12.904C16.4372 13.512 16.6079 14.2533 16.6079 15.128C16.6079 15.9813 16.4372 16.712 16.0959 17.32C15.7652 17.928 15.3279 18.392 14.7839 18.712C14.2399 19.032 13.6479 19.192 13.0079 19.192ZM13.0079 18.104C13.4559 18.104 13.8505 17.9813 14.1919 17.736C14.5332 17.48 14.7945 17.128 14.9759 16.68C15.1572 16.232 15.2479 15.7147 15.2479 15.128C15.2479 14.5307 15.1572 14.008 14.9759 13.56C14.7945 13.1013 14.5332 12.7493 14.1919 12.504C13.8505 12.248 13.4559 12.12 13.0079 12.12C12.5599 12.12 12.1652 12.248 11.8239 12.504C11.4932 12.7493 11.2319 13.1013 11.0399 13.56C10.8585 14.008 10.7679 14.5307 10.7679 15.128C10.7679 15.7147 10.8585 16.232 11.0399 16.68C11.2319 17.128 11.4932 17.48 11.8239 17.736C12.1652 17.9813 12.5599 18.104 13.0079 18.104ZM19.8253 19L17.6653 11.224H19.0413L20.1773 15.72C20.2626 16.072 20.3426 16.424 20.4173 16.776C20.4919 17.128 20.5613 17.512 20.6253 17.928H20.6893C20.7746 17.512 20.8546 17.128 20.9293 16.776C21.0146 16.424 21.0999 16.072 21.1853 15.72L22.3373 11.224H23.7773L24.9453 15.72C25.0413 16.072 25.1266 16.424 25.2013 16.776C25.2866 17.128 25.3719 17.512 25.4573 17.928H25.5213C25.6066 17.512 25.6866 17.128 25.7613 16.776C25.8359 16.424 25.9106 16.072 25.9853 15.72L27.1213 11.224H28.4013L26.3053 19H24.5933L23.5533 14.84C23.4679 14.4773 23.3826 14.12 23.2973 13.768C23.2226 13.4053 23.1426 12.9947 23.0573 12.536H22.9933C22.9186 12.9947 22.8386 13.4053 22.7533 13.768C22.6786 14.1307 22.5933 14.488 22.4973 14.84L21.4573 19H19.8253ZM33.1828 19.192C32.4894 19.192 31.8548 19.032 31.2788 18.712C30.7134 18.3813 30.2654 17.9173 29.9348 17.32C29.6041 16.712 29.4388 15.976 29.4388 15.112C29.4388 14.2693 29.6094 13.544 29.9508 12.936C30.2921 12.328 30.7294 11.8587 31.2628 11.528C31.7961 11.1973 32.3614 11.032 32.9588 11.032C33.6201 11.032 34.1801 11.1867 34.6388 11.496C35.1081 11.7947 35.4601 12.216 35.6948 12.76C35.9294 13.304 36.0468 13.944 36.0468 14.68C36.0468 14.8187 36.0414 14.952 36.0308 15.08C36.0308 15.208 36.0148 15.336 35.9828 15.464H30.3828V14.424H34.8628C34.8628 13.6773 34.6974 13.1067 34.3668 12.712C34.0468 12.3067 33.5828 12.104 32.9748 12.104C32.6228 12.104 32.2761 12.2053 31.9348 12.408C31.5934 12.6 31.3108 12.9147 31.0868 13.352C30.8734 13.7893 30.7668 14.3707 30.7668 15.096C30.7668 15.7573 30.8788 16.312 31.1028 16.76C31.3374 17.208 31.6521 17.5493 32.0468 17.784C32.4414 18.008 32.8734 18.12 33.3428 18.12C33.7161 18.12 34.0628 18.0667 34.3828 17.96C34.7134 17.8533 35.0121 17.7093 35.2788 17.528L35.7588 18.392C35.4174 18.6267 35.0334 18.8187 34.6068 18.968C34.1908 19.1173 33.7161 19.192 33.1828 19.192ZM37.9683 19V11.224H39.0563L39.1683 12.632H39.2163C39.4723 12.1413 39.7923 11.752 40.1763 11.464C40.5603 11.176 40.9763 11.032 41.4243 11.032C41.5949 11.032 41.7443 11.0427 41.8723 11.064C42.0003 11.0853 42.1283 11.128 42.2563 11.192L41.9683 12.312C41.8509 12.28 41.7389 12.2587 41.6323 12.248C41.5363 12.2267 41.4083 12.216 41.2483 12.216C40.9176 12.216 40.5709 12.3493 40.2083 12.616C39.8563 12.8827 39.5469 13.3467 39.2803 14.008V19H37.9683ZM46.5109 19.192C45.8175 19.192 45.1829 19.032 44.6069 18.712C44.0415 18.3813 43.5935 17.9173 43.2629 17.32C42.9322 16.712 42.7669 15.976 42.7669 15.112C42.7669 14.2693 42.9375 13.544 43.2789 12.936C43.6202 12.328 44.0575 11.8587 44.5909 11.528C45.1242 11.1973 45.6895 11.032 46.2869 11.032C46.9482 11.032 47.5082 11.1867 47.9669 11.496C48.4362 11.7947 48.7882 12.216 49.0229 12.76C49.2575 13.304 49.3749 13.944 49.3749 14.68C49.3749 14.8187 49.3695 14.952 49.3589 15.08C49.3589 15.208 49.3429 15.336 49.3109 15.464H43.7109V14.424H48.1909C48.1909 13.6773 48.0255 13.1067 47.6949 12.712C47.3749 12.3067 46.9109 12.104 46.3029 12.104C45.9509 12.104 45.6042 12.2053 45.2629 12.408C44.9215 12.6 44.6389 12.9147 44.4149 13.352C44.2015 13.7893 44.0949 14.3707 44.0949 15.096C44.0949 15.7573 44.2069 16.312 44.4309 16.76C44.6655 17.208 44.9802 17.5493 45.3749 17.784C45.7695 18.008 46.2015 18.12 46.6709 18.12C47.0442 18.12 47.3909 18.0667 47.7109 17.96C48.0415 17.8533 48.3402 17.7093 48.6069 17.528L49.0869 18.392C48.7455 18.6267 48.3615 18.8187 47.9349 18.968C47.5189 19.1173 47.0442 19.192 46.5109 19.192ZM53.9524 19.192C52.971 19.192 52.187 18.84 51.6004 18.136C51.0244 17.4213 50.7364 16.4187 50.7364 15.128C50.7364 14.2853 50.891 13.56 51.2004 12.952C51.5204 12.3333 51.9364 11.8587 52.4484 11.528C52.9604 11.1973 53.515 11.032 54.1124 11.032C54.571 11.032 54.9604 11.112 55.2804 11.272C55.611 11.4213 55.947 11.64 56.2884 11.928L56.2244 10.6V7.608H57.5524V19H56.4644L56.3524 18.088H56.3044C56.0057 18.3867 55.6537 18.648 55.2484 18.872C54.843 19.0853 54.411 19.192 53.9524 19.192ZM54.2404 18.088C54.603 18.088 54.9444 17.9973 55.2644 17.816C55.5844 17.6347 55.9044 17.368 56.2244 17.016V12.952C55.9044 12.6533 55.5897 12.4453 55.2804 12.328C54.971 12.2 54.6564 12.136 54.3364 12.136C53.9204 12.136 53.5417 12.264 53.2004 12.52C52.8697 12.7653 52.603 13.112 52.4004 13.56C52.1977 13.9973 52.0964 14.5147 52.0964 15.112C52.0964 16.04 52.283 16.7707 52.6564 17.304C53.0297 17.8267 53.5577 18.088 54.2404 18.088ZM63.5025 19V8.504H66.6225C67.3265 8.504 67.9505 8.58933 68.4945 8.76C69.0385 8.93067 69.4598 9.208 69.7585 9.592C70.0678 9.96533 70.2225 10.456 70.2225 11.064C70.2225 11.608 70.0892 12.088 69.8225 12.504C69.5665 12.9093 69.1878 13.192 68.6865 13.352V13.416C69.3478 13.5333 69.8705 13.8 70.2545 14.216C70.6385 14.6213 70.8305 15.176 70.8305 15.88C70.8305 16.584 70.6598 17.1653 70.3185 17.624C69.9878 18.0827 69.5238 18.4293 68.9265 18.664C68.3292 18.888 67.6358 19 66.8465 19H63.5025ZM64.8305 12.968H66.3825C67.2785 12.968 67.9238 12.8133 68.3185 12.504C68.7132 12.1947 68.9105 11.7733 68.9105 11.24C68.9105 10.6213 68.7025 10.1893 68.2865 9.944C67.8705 9.688 67.2572 9.56 66.4465 9.56H64.8305V12.968ZM64.8305 17.944H66.6545C67.5612 17.944 68.2652 17.7787 68.7665 17.448C69.2678 17.1067 69.5185 16.584 69.5185 15.88C69.5185 15.2293 69.2732 14.7547 68.7825 14.456C68.2918 14.1467 67.5825 13.992 66.6545 13.992H64.8305V17.944ZM72.69 22.344C72.5193 22.344 72.354 22.328 72.194 22.296C72.0447 22.264 71.906 22.2267 71.778 22.184L72.066 21.16C72.162 21.192 72.258 21.2133 72.354 21.224C72.45 21.2453 72.5407 21.256 72.626 21.256C73.074 21.256 73.4367 21.096 73.714 20.776C74.002 20.4667 74.226 20.072 74.386 19.592L74.562 19.016L71.442 11.224H72.802L74.386 15.528C74.514 15.8587 74.642 16.216 74.77 16.6C74.898 16.984 75.0207 17.3573 75.138 17.72H75.202C75.3193 17.3573 75.4313 16.9893 75.538 16.616C75.6553 16.232 75.762 15.8693 75.858 15.528L77.25 11.224H78.53L75.602 19.64C75.4207 20.152 75.202 20.6107 74.946 21.016C74.69 21.432 74.3807 21.7573 74.018 21.992C73.6553 22.2267 73.2127 22.344 72.69 22.344Z" fill="white" fill-opacity="0.3"/>
<g clip-path="url(#clip0_556_6945)">
<path d="M120 0H113.151V0.491228H120V0Z" fill="#CE0E2D"/>
<path d="M120 1.52271H113.151V2.06306H120V1.52271Z" fill="#CE0E2D"/>
<path d="M120 2.99658H113.151V3.63518H120V2.99658Z" fill="#CE0E2D"/>
<path d="M120 4.51929H113.151V5.25613H120V4.51929Z" fill="#CE0E2D"/>
<path d="M120 6.04199H113.151V6.87708H120V6.04199Z" fill="#CE0E2D"/>
<path d="M111.923 0L85 28H94.6829L104.224 18.0772V28H111.923V0Z" fill="white"/>
<path d="M120 7.46655H113.151V28.049H120V7.46655Z" fill="white"/>
</g>
<defs>
<clipPath id="clip0_556_6945">
<rect width="35" height="28" fill="white" transform="translate(85)"/>
</clipPath>
</defs>
</svg>
