<svg width="30" height="30" viewBox="0 0 30 30" fill="none" xmlns="http://www.w3.org/2000/svg">
<circle cx="15" cy="15" r="15" fill="#5BAAF2" fill-opacity="0.1"/>
<circle cx="15" cy="15" r="14.5" stroke="#5BAAF2" stroke-opacity="0.3"/>
<path d="M14.9999 17.25C12.6223 17.25 10.508 18.398 9.16188 20.1795C8.87217 20.5629 8.72731 20.7546 8.73205 21.0137C8.73571 21.2139 8.86141 21.4664 9.01891 21.59C9.22278 21.75 9.50529 21.75 10.0703 21.75H19.9295C20.4945 21.75 20.777 21.75 20.9809 21.59C21.1384 21.4664 21.2641 21.2139 21.2677 21.0137C21.2725 20.7546 21.1276 20.5629 20.8379 20.1795C19.4918 18.398 17.3774 17.25 14.9999 17.25Z" stroke="#5BAAF2" stroke-opacity="0.3" stroke-width="2" stroke-linecap="round" stroke-linejoin="round"/>
<path d="M14.9999 15C16.8638 15 18.3749 13.489 18.3749 11.625C18.3749 9.76104 16.8638 8.25 14.9999 8.25C13.1359 8.25 11.6249 9.76104 11.6249 11.625C11.6249 13.489 13.1359 15 14.9999 15Z" stroke="#5BAAF2" stroke-opacity="0.3" stroke-width="2" stroke-linecap="round" stroke-linejoin="round"/>
</svg>
