<svg width="28" height="29" viewBox="0 0 28 29" fill="none" xmlns="http://www.w3.org/2000/svg">
<path d="M17.4992 22.5008C17.4992 24.4338 15.9322 26.0008 13.9992 26.0008C12.0662 26.0008 10.4992 24.4338 10.4992 22.5008M16.0951 7.61246C16.6032 7.08756 16.9159 6.37237 16.9159 5.58415C16.9159 3.97332 15.61 2.66748 13.9992 2.66748C12.3884 2.66748 11.0825 3.97332 11.0825 5.58415C11.0825 6.37237 11.3952 7.08756 11.9033 7.61246M20.9992 13.4008C20.9992 11.7918 20.2617 10.2488 18.9489 9.11103C17.6362 7.97331 15.8557 7.33415 13.9992 7.33415C12.1427 7.33415 10.3622 7.97331 9.04944 9.11103C7.73668 10.2488 6.99919 11.7918 6.99919 13.4008C6.99919 16.0629 6.33901 18.0098 5.51526 19.4029C4.57641 20.9907 4.10699 21.7846 4.12553 21.9742C4.14674 22.1912 4.18579 22.2596 4.36175 22.3883C4.51555 22.5008 5.28828 22.5008 6.83374 22.5008H21.1646C22.7101 22.5008 23.4828 22.5008 23.6366 22.3883C23.8126 22.2596 23.8516 22.1912 23.8728 21.9742C23.8914 21.7846 23.422 20.9907 22.4831 19.4029C21.6594 18.0098 20.9992 16.0629 20.9992 13.4008Z" stroke="#080808" stroke-width="2" stroke-linecap="round" stroke-linejoin="round"/>
</svg>
