<svg width="24" height="25" viewBox="0 0 24 25" fill="none" xmlns="http://www.w3.org/2000/svg">
<g opacity="0.1">
<path d="M2.42012 12.9132C2.28394 12.6976 2.21584 12.5897 2.17772 12.4234C2.14909 12.2985 2.14909 12.1015 2.17772 11.9766C2.21584 11.8103 2.28394 11.7025 2.42012 11.4868C3.54553 9.70485 6.8954 5.20001 12.0004 5.20001C17.1054 5.20001 20.4553 9.70485 21.5807 11.4868C21.7169 11.7025 21.785 11.8103 21.8231 11.9766C21.8517 12.1015 21.8517 12.2985 21.8231 12.4234C21.785 12.5897 21.7169 12.6976 21.5807 12.9132C20.4553 14.6952 17.1054 19.2 12.0004 19.2C6.8954 19.2 3.54553 14.6952 2.42012 12.9132Z" stroke="black" stroke-width="2" stroke-linecap="round" stroke-linejoin="round"/>
<path d="M12.0004 15.2C13.6573 15.2 15.0004 13.8569 15.0004 12.2C15.0004 10.5432 13.6573 9.20001 12.0004 9.20001C10.3435 9.20001 9.0004 10.5432 9.0004 12.2C9.0004 13.8569 10.3435 15.2 12.0004 15.2Z" stroke="black" stroke-width="2" stroke-linecap="round" stroke-linejoin="round"/>
</g>
</svg>
