<svg width="24" height="25" viewBox="0 0 24 25" fill="none" xmlns="http://www.w3.org/2000/svg">
<g opacity="0.1">
<path d="M17 10.2V8.20001C17 5.43859 14.7614 3.20001 12 3.20001C9.23858 3.20001 7 5.43859 7 8.20001V10.2M12 14.7V16.7M8.8 21.2H15.2C16.8802 21.2 17.7202 21.2 18.362 20.873C18.9265 20.5854 19.3854 20.1265 19.673 19.562C20 18.9202 20 18.0802 20 16.4V15C20 13.3199 20 12.4798 19.673 11.838C19.3854 11.2736 18.9265 10.8146 18.362 10.527C17.7202 10.2 16.8802 10.2 15.2 10.2H8.8C7.11984 10.2 6.27976 10.2 5.63803 10.527C5.07354 10.8146 4.6146 11.2736 4.32698 11.838C4 12.4798 4 13.3199 4 15V16.4C4 18.0802 4 18.9202 4.32698 19.562C4.6146 20.1265 5.07354 20.5854 5.63803 20.873C6.27976 21.2 7.11984 21.2 8.8 21.2Z" stroke="black" stroke-width="2" stroke-linecap="round" stroke-linejoin="round"/>
</g>
</svg>
