<svg width="16" height="16" viewBox="0 0 16 16" fill="none" xmlns="http://www.w3.org/2000/svg">
<path fill-rule="evenodd" clip-rule="evenodd" d="M12.6323 11.8159C12.4026 12.0547 12.0228 12.0622 11.7839 11.8325L8.18394 8.4325C8.06629 8.31938 7.9998 8.16321 7.9998 8C7.9998 7.83679 8.06629 7.68062 8.18394 7.5675L11.7839 4.1675C12.0228 3.93782 12.4026 3.94527 12.6323 4.18413C12.862 4.423 12.8545 4.80282 12.6157 5.0325L9.46547 8L12.6157 10.9675C12.8545 11.1972 12.862 11.577 12.6323 11.8159ZM7.8323 11.8159C7.60263 12.0547 7.2228 12.0622 6.98394 11.8325L3.38394 8.4325C3.26629 8.31938 3.1998 8.16321 3.1998 8C3.1998 7.83679 3.26629 7.68062 3.38394 7.5675L6.98394 4.1675C7.2228 3.93782 7.60263 3.94527 7.8323 4.18413C8.06198 4.423 8.05453 4.80282 7.81567 5.0325L4.66547 8L7.81567 10.9675C8.05453 11.1972 8.06198 11.577 7.8323 11.8159Z" fill="#626262"/>
</svg>
