<svg width="16" height="16" viewBox="0 0 16 16" fill="none" xmlns="http://www.w3.org/2000/svg">
<path d="M3.38433 10.9675C3.14547 11.1972 3.13802 11.577 3.3677 11.8159C3.59737 12.0547 3.9772 12.0622 4.21606 11.8325L7.81606 8.4325C7.93371 8.31938 8.0002 8.16321 8.0002 8C8.0002 7.83679 7.93371 7.68062 7.81606 7.5675L4.21606 4.1675C3.9772 3.93782 3.59737 3.94527 3.3677 4.18414C3.13802 4.423 3.14547 4.80282 3.38433 5.0325L6.53453 8L3.38433 10.9675Z" fill="#626262"/>
<path d="M8.18433 10.9675C7.94547 11.1972 7.93802 11.577 8.1677 11.8159C8.39737 12.0547 8.7772 12.0622 9.01606 11.8325L12.6161 8.4325C12.7337 8.31938 12.8002 8.16321 12.8002 8C12.8002 7.83679 12.7337 7.68062 12.6161 7.5675L9.01606 4.1675C8.7772 3.93782 8.39737 3.94527 8.1677 4.18414C7.93802 4.423 7.94547 4.80282 8.18433 5.0325L11.3345 8L8.18433 10.9675Z" fill="#626262"/>
</svg>
