<svg width="22" height="22" viewBox="0 0 22 22" fill="none" xmlns="http://www.w3.org/2000/svg">
<path d="M2.75 7.33337L13.75 7.33337M13.75 7.33337C13.75 8.85216 14.9812 10.0834 16.5 10.0834C18.0188 10.0834 19.25 8.85216 19.25 7.33337C19.25 5.81459 18.0188 4.58337 16.5 4.58337C14.9812 4.58337 13.75 5.81459 13.75 7.33337ZM8.25 14.6667L19.25 14.6667M8.25 14.6667C8.25 16.1855 7.01878 17.4167 5.5 17.4167C3.98122 17.4167 2.75 16.1855 2.75 14.6667C2.75 13.1479 3.98122 11.9167 5.5 11.9167C7.01878 11.9167 8.25 13.1479 8.25 14.6667Z" stroke="#5BAAF2" stroke-width="2" stroke-linecap="round" stroke-linejoin="round"/>
</svg>
