<svg width="16" height="16" viewBox="0 0 16 16" fill="none" xmlns="http://www.w3.org/2000/svg">
<g clip-path="url(#clip0_2451_2207)">
<path d="M2.66733 14.5451C3.06905 14.6668 3.61164 14.6668 4.53398 14.6668H11.4673C12.3897 14.6668 12.9322 14.6668 13.334 14.5451M2.66733 14.5451C2.5812 14.519 2.50154 14.4873 2.426 14.4488C2.04968 14.2571 1.74372 13.9511 1.55197 13.5748C1.33398 13.147 1.33398 12.5869 1.33398 11.4668V4.5335C1.33398 3.41339 1.33398 2.85334 1.55197 2.42552C1.74372 2.04919 2.04968 1.74323 2.426 1.55148C2.85383 1.3335 3.41388 1.3335 4.53398 1.3335H11.4673C12.5874 1.3335 13.1475 1.3335 13.5753 1.55148C13.9516 1.74323 14.2576 2.04919 14.4493 2.42552C14.6673 2.85334 14.6673 3.41339 14.6673 4.5335V11.4668C14.6673 12.5869 14.6673 13.147 14.4493 13.5748C14.2576 13.9511 13.9516 14.2571 13.5753 14.4488C13.4998 14.4873 13.4201 14.519 13.334 14.5451M2.66733 14.5451C2.66755 14.0056 2.67079 13.7201 2.71856 13.4799C2.92897 12.4221 3.7559 11.5952 4.81374 11.3847C5.07134 11.3335 5.38111 11.3335 6.00065 11.3335H10.0007C10.6202 11.3335 10.93 11.3335 11.1876 11.3847C12.2454 11.5952 13.0723 12.4221 13.2827 13.4799C13.3305 13.7201 13.3337 14.0056 13.334 14.5451M10.6673 6.3335C10.6673 7.80625 9.47341 9.00016 8.00065 9.00016C6.52789 9.00016 5.33398 7.80625 5.33398 6.3335C5.33398 4.86074 6.52789 3.66683 8.00065 3.66683C9.47341 3.66683 10.6673 4.86074 10.6673 6.3335Z" stroke="#CE0E2D" stroke-width="2" stroke-linecap="round" stroke-linejoin="round"/>
</g>
<defs>
<clipPath id="clip0_2451_2207">
<rect width="16" height="16" fill="#CE0E2D"/>
</clipPath>
</defs>
</svg>
