<svg width="137" height="60" viewBox="0 0 137 60" fill="none" xmlns="http://www.w3.org/2000/svg">
<g clip-path="url(#clip0_536_5681)">
<path d="M3.84792 14.359C6.66972 13.9316 9.06398 13.4188 11.5437 13.1624C12.7409 13.0769 13.0829 12.6496 13.2539 11.453C13.5105 8.97438 14.0235 6.58122 14.4511 3.7607C17.1874 4.78635 19.5816 5.64105 21.9759 6.66669C22.831 7.09404 23.2585 6.9231 23.8571 6.15387C25.3962 4.10258 27.1064 2.13677 28.8166 -0.0854492C30.0137 1.1966 31.0399 2.30771 31.8949 3.41882C32.8355 4.52994 33.6906 5.72652 34.6312 6.9231C37.453 5.89746 40.1893 4.87182 43.3532 3.67523C43.7807 6.49575 44.2938 8.97438 44.5503 11.5385C44.6358 12.6496 45.0634 12.906 46.0895 12.9915C48.6548 13.2479 51.1345 13.7607 53.9563 14.1881C52.8447 17.265 51.8186 20.0855 50.7925 22.8205C53.0157 24.7009 55.3245 26.5812 57.8898 28.6325C55.41 30.6838 53.1012 32.5641 50.7925 34.4445C51.8186 37.1795 52.8447 39.9146 53.9563 43.0769C51.1345 43.5043 48.6548 44.0171 46.0895 44.359C45.0634 44.4445 44.7213 44.7009 44.6358 45.812C44.3793 48.3761 43.8662 50.8547 43.4387 53.6752C40.3604 52.5641 37.6241 51.5385 34.8023 50.5128C32.9211 52.7351 31.0399 55.0428 28.9876 57.6069C27.2774 55.4701 25.5673 53.5898 24.1136 51.5385C23.4295 50.5983 22.9165 50.3419 21.8049 50.9402C19.4106 52.1368 17.1018 52.906 14.4511 53.8462C14.0235 51.1111 13.5105 48.6325 13.2539 46.1539C13.0829 44.9573 12.8264 44.5299 11.5437 44.4445C9.06398 44.1881 6.66972 43.6752 3.93342 43.2479C5.04504 40.171 6.07116 37.4359 7.09727 34.6154C4.87403 32.8205 2.56528 30.9402 0 28.8889C2.47977 26.8376 4.78852 24.9573 7.09727 22.9915C6.07116 20.2564 5.04505 17.5214 3.84792 14.359ZM40.8734 28.8889C41.472 22.3932 35.1443 16.6667 28.8166 16.7522C22.3179 16.7522 16.7598 22.4787 16.7598 28.8889C16.6743 35.1282 22.4034 40.8547 28.7311 40.9402C34.9733 41.1111 41.5575 35.0428 40.8734 28.8889ZM35.4008 8.29062C39.0777 14.0171 41.5575 20 42.3271 26.6667C44.0373 19.6581 43.7807 12.7351 42.1561 5.64105C39.8473 6.49575 37.7951 7.35045 35.4008 8.29062ZM26.6789 15.2137C19.6671 13.6752 12.7409 13.9316 5.64361 15.4701C6.58421 17.7778 7.4393 20 8.2944 21.9658C11.4582 20.4274 14.28 18.8034 17.2729 17.6923C20.2657 16.6667 23.515 16.0684 26.6789 15.2137ZM15.3917 31.0257C13.767 38.0342 13.8525 44.9573 15.5627 52.0513C17.9569 51.1111 20.0947 50.2564 22.3179 49.4017C18.641 43.5898 16.2468 37.6923 15.3917 31.0257ZM49.5099 35.3846C43.6952 39.1453 37.7096 41.5385 31.1254 42.3077C38.1371 44.0171 45.0634 43.7607 52.1606 42.2222C51.22 39.8291 50.4505 37.6923 49.5099 35.3846ZM18.2135 37.265C20.2657 44.1881 23.9426 50.171 28.9021 55.641C30.4413 53.6752 31.9805 51.8804 33.5196 49.9146C27.363 46.8376 22.3179 42.7351 18.2135 37.265ZM24.2846 7.7778C30.4413 10.9402 35.6574 14.9573 39.6763 20.4274C37.6241 13.5043 33.8617 7.43592 28.9021 2.0513C27.2774 4.01712 25.8238 5.81199 24.2846 7.7778ZM37.3675 39.4872C44.2938 37.3504 50.2794 33.7607 55.752 28.718C53.7853 27.1795 51.9896 25.641 50.0229 24.1026C46.8591 30.3419 42.7546 35.4701 37.3675 39.4872ZM7.78134 33.5043C10.9452 27.5214 14.7931 22.3077 20.2657 18.2906C13.3394 20.2564 7.52481 24.0171 2.13773 28.8889C4.01893 30.4274 5.81463 31.8804 7.78134 33.5043ZM33.7761 16.0684C28.5601 11.1111 22.4034 7.86327 15.4772 5.64105C15.1351 8.11968 14.7076 10.4274 14.3656 12.906C21.2063 12.5641 27.6195 13.4188 33.7761 16.0684ZM12.9974 43.4188C12.6554 36.4957 13.5105 30.0855 16.2468 23.9316C11.2872 29.1453 8.03787 35.2992 5.72912 42.3077C8.12338 42.6496 10.4321 42.9915 12.9974 43.4188ZM24.1136 41.624C29.3297 46.5812 35.4008 49.8291 42.4126 52.0513C42.7546 49.5727 43.0967 47.265 43.5242 44.7863C36.598 45.1282 30.2703 44.2735 24.1136 41.624ZM41.643 33.6752C46.6025 28.4616 49.8519 22.3077 52.0751 15.3846C49.6809 15.0428 47.3721 14.6154 44.8924 14.2735C45.1489 21.1111 44.3793 27.6069 41.643 33.6752Z" fill="#CE0E2D"/>
<path d="M78.6682 26.923C77.2146 26.923 76.0175 26.7521 75.0769 26.4102C74.1363 26.0683 73.3667 25.5555 72.8536 24.7863C72.3406 24.017 71.913 23.0769 71.6565 21.8803C71.4 20.6837 71.3145 19.2307 71.3145 17.5213C71.3145 15.8119 71.4 14.3589 71.6565 13.2478C71.913 12.0512 72.2551 11.1111 72.8536 10.3418C73.4522 9.5726 74.1363 9.05978 75.1624 8.7179C76.1885 8.37602 77.3856 8.20508 78.8393 8.20508C79.3523 8.20508 79.9509 8.20508 80.635 8.29055C81.319 8.37602 81.9176 8.46149 82.5162 8.54696C83.1147 8.63243 83.7133 8.7179 84.1408 8.88884L83.9698 12.5641C83.6278 12.4786 83.2002 12.4786 82.7727 12.3931C82.2596 12.3076 81.7466 12.3076 81.2335 12.2222C80.7205 12.2222 80.2074 12.1367 79.6944 12.1367C79.0103 12.1367 78.4117 12.2222 77.8987 12.3931C77.4711 12.5641 77.0436 12.8205 76.787 13.2478C76.5305 13.6752 76.3595 14.188 76.274 14.8717C76.1885 15.5555 76.103 16.4102 76.103 17.4358C76.103 18.4615 76.1885 19.3162 76.274 19.9999C76.3595 20.6837 76.5305 21.1965 76.787 21.6239C77.0436 22.0512 77.3856 22.3076 77.8987 22.4786C78.3262 22.6495 79.0103 22.735 79.6944 22.735C80.3784 22.735 81.148 22.735 82.0031 22.6495C82.8582 22.5641 83.5423 22.5641 84.0553 22.4786L84.1408 26.1538C83.7133 26.2393 83.2002 26.3247 82.6017 26.4102C82.0031 26.4957 81.319 26.5811 80.635 26.6666C79.9509 26.7521 79.3523 26.923 78.6682 26.923Z" fill="#4D5858"/>
<path d="M86.1934 26.5812L90.5543 8.63245H98.1647L102.526 26.5812H97.7371L96.9675 23.5897H91.5804L90.8109 26.5812H86.1934ZM92.2645 20H96.369L94.7443 12.4786H93.8037L92.2645 20Z" fill="#4D5858"/>
<path d="M111.76 26.923C110.991 26.923 110.136 26.8375 109.281 26.7521C108.425 26.6666 107.57 26.5811 106.801 26.4102C106.031 26.2392 105.347 26.1538 104.834 26.0683L105.091 22.3931C105.689 22.4786 106.288 22.4786 107.057 22.564C107.827 22.6495 108.596 22.735 109.366 22.8204C110.136 22.9059 110.82 22.9059 111.333 22.9059C111.846 22.9059 112.359 22.8204 112.615 22.735C112.957 22.6495 113.214 22.3931 113.299 22.2222C113.385 22.0512 113.556 21.7093 113.556 21.282C113.556 20.9401 113.47 20.6837 113.385 20.5127C113.214 20.3418 112.957 20.1709 112.615 19.9999C112.273 19.829 111.675 19.7435 110.905 19.5726C109.794 19.4016 108.767 19.1452 107.998 18.8888C107.228 18.6324 106.544 18.2905 106.117 17.8632C105.689 17.4358 105.262 16.923 105.091 16.3247C104.92 15.7264 104.749 14.9572 104.749 14.017C104.749 12.4786 105.005 11.282 105.518 10.5127C106.031 9.74352 106.801 9.05976 107.827 8.80335C108.853 8.46147 109.965 8.29053 111.333 8.29053C111.931 8.29053 112.701 8.29053 113.47 8.376C114.24 8.46147 115.095 8.54694 115.865 8.63241C116.634 8.71788 117.318 8.80335 117.831 8.88882L117.66 12.564C117.147 12.4786 116.549 12.4786 115.779 12.3931C115.01 12.3076 114.326 12.3076 113.641 12.2222C112.957 12.1367 112.273 12.1367 111.76 12.1367C111.247 12.1367 110.82 12.2222 110.478 12.3076C110.136 12.3931 109.879 12.564 109.708 12.735C109.537 12.9059 109.452 13.1623 109.452 13.5042C109.452 13.8461 109.537 14.1025 109.708 14.3589C109.879 14.5298 110.136 14.7008 110.563 14.8717C110.991 15.0427 111.504 15.1281 112.273 15.2991C113.385 15.5555 114.411 15.8119 115.181 16.0683C115.95 16.3247 116.549 16.6666 117.062 17.0085C117.489 17.4358 117.831 17.8632 118.088 18.5469C118.345 19.2307 118.43 19.9145 118.43 20.8546C118.43 22.3076 118.173 23.5042 117.66 24.3589C117.147 25.2136 116.378 25.8974 115.437 26.2392C114.326 26.7521 113.128 26.923 111.76 26.923Z" fill="#4D5858"/>
<path d="M121.594 26.5812V8.63245H134.164V12.4786H126.297V15.641H132.539V19.4017H126.297V22.735H134.164V26.5812H121.594Z" fill="#4D5858"/>
<path d="M74.9915 51.1965L71.0581 36.923H72.0842L75.6756 50.2563H76.9582L80.5496 36.923H81.5757L77.8133 51.1965H74.9915Z" fill="#4D5858"/>
<path d="M85.0815 51.1965V36.923H86.1077V51.1965H85.0815Z" fill="#4D5858"/>
<path d="M94.6585 51.3675C94.3165 51.3675 93.8034 51.3675 93.2904 51.282C92.7773 51.282 92.1787 51.1966 91.6657 51.1111C91.1526 51.0256 90.6396 51.0256 90.212 50.9402L90.2975 50C90.7251 50 91.1526 50.0855 91.6657 50.1709C92.1787 50.2564 92.6918 50.2564 93.2049 50.3419C93.7179 50.3419 94.1455 50.4273 94.4875 50.4273C95.2571 50.4273 95.8556 50.3419 96.3687 50.0855C96.8817 49.829 97.2238 49.4872 97.4803 49.0598C97.7368 48.6325 97.8224 47.9487 97.8224 47.1795C97.8224 46.4957 97.7368 46.0684 97.4803 45.641C97.2238 45.2991 96.8817 45.0427 96.3687 44.7863C95.8556 44.6154 95.1716 44.4444 94.402 44.2735C93.7179 44.188 93.0338 44.0171 92.5208 43.8461C92.0077 43.6752 91.4947 43.5043 91.1526 43.1624C90.8106 42.906 90.4686 42.4786 90.2975 42.0513C90.1265 41.6239 90.041 41.0256 90.041 40.2564C90.041 39.3162 90.212 38.6325 90.5541 38.1196C90.8961 37.6068 91.4092 37.1795 92.0932 36.9231C92.7773 36.6666 93.5469 36.5812 94.4875 36.5812C94.8295 36.5812 95.3426 36.5812 95.8556 36.6666C96.3687 36.6666 96.8818 36.7521 97.3948 36.8376C97.9079 36.9231 98.3354 36.9231 98.6774 37.0085L98.5919 37.9487C98.1644 37.8632 97.7368 37.8632 97.2238 37.7778C96.7107 37.6923 96.1977 37.6923 95.7701 37.6068C95.3426 37.5213 94.915 37.5213 94.6585 37.5213C93.8889 37.5213 93.2904 37.6068 92.7773 37.7778C92.2643 37.9487 91.8367 38.2906 91.5802 38.6325C91.3237 38.9743 91.1526 39.5726 91.1526 40.1709C91.1526 40.9402 91.3237 41.5384 91.5802 41.8803C91.8367 42.2222 92.2643 42.5641 92.7773 42.735C93.2904 42.906 94.0599 43.0769 94.8295 43.2478C95.5136 43.3333 96.1122 43.5043 96.6252 43.6752C97.1383 43.8461 97.5658 44.0171 97.9079 44.359C98.2499 44.7008 98.5064 44.9572 98.6774 45.3846C98.8485 45.8119 98.934 46.3248 98.934 47.0085C98.934 48.0342 98.763 48.8889 98.4209 49.5726C98.0789 50.1709 97.5658 50.6837 96.8818 50.9402C96.3687 51.1966 95.5991 51.3675 94.6585 51.3675Z" fill="#4D5858"/>
<path d="M102.953 51.1965V36.923H103.979V51.1965H102.953Z" fill="#4D5858"/>
<path d="M113.642 51.3675C112.188 51.3675 110.991 51.1111 110.221 50.5128C109.452 50 108.853 49.1453 108.596 48.0342C108.254 46.9231 108.169 45.641 108.169 44.0171C108.169 42.4786 108.34 41.1111 108.682 40C109.024 38.8889 109.537 38.0342 110.392 37.4359C111.162 36.8376 112.359 36.5812 113.813 36.5812C115.266 36.5812 116.378 36.8376 117.233 37.4359C118.003 38.0342 118.601 38.8889 118.943 40C119.285 41.1111 119.456 42.4786 119.456 44.0171C119.456 45.641 119.285 47.0085 119.029 48.1196C118.687 49.2307 118.174 50 117.404 50.5128C116.292 51.1111 115.095 51.3675 113.642 51.3675ZM113.642 50.5128C114.924 50.5128 115.865 50.2564 116.463 49.829C117.062 49.4017 117.489 48.6325 117.746 47.7778C118.003 46.8376 118.088 45.641 118.088 44.188C118.088 42.8205 118.003 41.6239 117.746 40.6837C117.489 39.7436 117.062 38.9743 116.463 38.4615C115.779 37.9487 114.924 37.6923 113.642 37.6923C112.444 37.6923 111.504 37.9487 110.82 38.4615C110.221 38.9743 109.708 39.6581 109.537 40.6837C109.281 41.6239 109.195 42.8205 109.195 44.188C109.195 45.5555 109.281 46.7521 109.537 47.6923C109.794 48.6325 110.221 49.3162 110.82 49.829C111.504 50.2564 112.444 50.5128 113.642 50.5128Z" fill="#4D5858"/>
<path d="M123.304 51.1965V36.923H125.442L131.77 50.2563H132.283V36.923H133.309V51.1965H131.171L124.843 37.8631H124.33V51.1965H123.304Z" fill="#4D5858"/>
<path d="M35.572 21.7949H32.4082V21.9659H35.572V21.7949Z" fill="#CE0E2D"/>
<path d="M35.572 22.4786H32.4082V22.735H35.572V22.4786Z" fill="#CE0E2D"/>
<path d="M35.572 23.1625H32.4082V23.4189H35.572V23.1625Z" fill="#CE0E2D"/>
<path d="M35.572 23.8462H32.4082V24.1881H35.572V23.8462Z" fill="#CE0E2D"/>
<path d="M35.572 24.5299H32.4082V24.8718H35.572V24.5299Z" fill="#CE0E2D"/>
<path d="M31.895 21.7949L19.4106 34.2736H23.8571L28.3036 29.8291V34.2736H31.895V21.7949Z" fill="#4D5858"/>
<path d="M35.572 25.1282H32.4082V34.2735H35.572V25.1282Z" fill="#4D5858"/>
</g>
<defs>
<clipPath id="clip0_536_5681">
<rect width="136.216" height="60" fill="white"/>
</clipPath>
</defs>
</svg>
