<svg width="386" height="170" viewBox="0 0 386 170" fill="none" xmlns="http://www.w3.org/2000/svg">
<path d="M104.464 62.3806H95.1914V62.8815H104.464V62.3806Z" fill="white"/>
<path d="M104.464 64.384H95.1914V65.1353H104.464V64.384Z" fill="white"/>
<path d="M104.464 66.3875H95.1914V67.1388H104.464V66.3875Z" fill="white"/>
<path d="M104.464 68.3909H95.1914V69.3926H104.464V68.3909Z" fill="white"/>
<path d="M104.464 70.3943H95.1914V71.3961H104.464V70.3943Z" fill="white"/>
<path d="M93.688 62.3806L57.0977 98.943H70.1298L83.162 85.9208V98.943H93.688V62.3806Z" fill="white"/>
<path d="M104.464 72.1473H95.1914V98.9431H104.464V72.1473Z" fill="white"/>
<path d="M11.4849 126.716C19.7553 127.968 26.7726 129.471 34.0406 130.222C37.5493 130.473 38.5517 131.725 39.053 135.231C39.8048 142.493 41.3086 149.505 42.5616 157.769C50.5815 154.764 57.5988 152.26 64.6161 149.255C67.1223 148.003 68.3754 148.503 70.1297 150.757C74.6409 156.768 79.6533 162.527 84.6656 169.038C88.1743 165.282 91.1817 162.026 93.6879 158.771C96.4447 155.515 98.9509 152.009 101.708 148.503C109.978 151.509 117.998 154.514 127.271 158.02C128.524 149.756 130.028 142.493 130.78 134.98C131.03 131.725 132.283 130.973 135.291 130.723C142.809 129.972 150.077 128.469 158.348 127.217C155.09 118.202 152.082 109.938 149.075 101.924C155.591 96.4145 162.358 90.9051 169.876 84.8949C162.608 78.8846 155.841 73.3752 149.075 67.8658C152.082 59.8521 155.09 51.8384 158.348 42.5726C150.077 41.3205 142.809 39.8179 135.291 38.8162C132.283 38.5658 131.281 37.8145 131.03 34.559C130.278 27.0461 128.775 19.7837 127.521 11.5196C118.499 14.7752 110.479 17.7803 102.209 20.7855C96.6954 14.2743 91.1817 7.5128 85.1669 -1.94311e-05C80.1545 6.26066 75.1421 11.7701 70.8816 17.7803C68.8766 20.535 67.3729 21.2863 64.1149 19.5333C57.0976 16.0273 50.3308 13.7735 42.5616 11.0188C41.3086 19.0325 39.8048 26.2949 39.053 33.5573C38.5517 37.0632 37.7999 38.3154 34.0406 38.5658C26.7726 39.3171 19.7553 40.8196 11.7355 42.0718C14.9936 51.0872 18.001 59.1008 21.0084 67.3649C14.4923 72.6239 7.7256 78.1333 0.207031 84.1436C7.47498 90.1538 14.2417 95.6632 21.0084 101.423C18.001 109.437 14.9936 117.45 11.4849 126.716ZM120.003 84.1436C121.757 103.176 103.211 119.955 84.6656 119.704C65.6186 119.704 49.3284 102.926 49.3284 84.1436C49.0777 65.8624 65.8692 49.0837 84.415 48.8333C102.71 48.3325 122.008 66.1128 120.003 84.1436ZM103.963 144.497C114.74 127.718 122.008 110.188 124.263 90.6547C129.276 111.19 128.524 131.474 123.762 152.26C116.995 149.756 110.981 147.251 103.963 144.497ZM78.4002 124.212C57.8494 128.72 37.5493 127.968 16.7479 123.461C19.5047 116.699 22.0109 110.188 24.5171 104.428C33.79 108.936 42.0604 113.694 50.8321 116.95C59.6037 119.955 69.1273 121.708 78.4002 124.212ZM45.3185 77.8829C40.5567 57.3479 40.8073 37.0632 45.8197 16.2778C52.837 19.0325 59.1025 21.5367 65.6186 24.041C54.842 41.0701 47.8246 58.3496 45.3185 77.8829ZM145.315 65.1111C128.273 54.0923 110.73 47.0803 91.4324 44.8265C111.983 39.8179 132.283 40.5692 153.085 45.0769C150.328 52.0889 148.072 58.3496 145.315 65.1111ZM53.5889 59.6017C59.6037 39.3171 70.3804 21.7872 84.9163 5.75982C89.4274 11.5196 93.9386 16.7786 98.4497 22.5384C80.4051 31.5538 65.6186 43.5743 53.5889 59.6017ZM71.3828 145.999C89.4274 136.733 104.715 124.963 116.494 108.936C110.479 129.221 99.4522 147.001 84.9163 162.778C80.1545 157.018 75.894 151.759 71.3828 145.999ZM109.728 53.0906C130.028 59.3513 147.571 69.8692 163.611 84.6444C157.846 89.1521 152.583 93.6598 146.819 98.1675C137.546 79.8863 125.517 64.8607 109.728 53.0906ZM23.0134 70.6205C32.2863 88.1504 43.5641 103.426 59.6037 115.197C39.3036 109.437 22.2615 98.4179 6.47251 84.1436C11.9861 79.6359 17.2491 75.3786 23.0134 70.6205ZM99.2015 121.708C83.9138 136.232 65.8692 145.749 45.5691 152.26C44.5666 144.997 43.3135 138.236 42.311 130.973C62.3605 131.975 81.157 129.471 99.2015 121.708ZM38.3011 41.5709C37.2986 61.8555 39.8048 80.6376 47.8246 98.6684C33.2887 83.3923 23.7652 65.3615 16.9985 44.8265C24.0158 43.8248 30.7826 42.8231 38.3011 41.5709ZM70.8816 46.8299C86.1694 32.3051 103.963 22.7889 124.514 16.2778C125.517 23.5402 126.519 30.3017 127.772 37.5641C107.472 36.5624 88.9262 39.0667 70.8816 46.8299ZM122.259 70.1196C136.794 85.3957 146.318 103.426 152.834 123.711C145.817 124.713 139.05 125.965 131.782 126.967C132.534 106.932 130.278 87.9 122.259 70.1196Z" fill="#CE0E2D"/>
<path d="M222.837 75.4821C218.577 75.4821 215.068 74.9812 212.311 73.9795C209.555 72.9778 207.299 71.4752 205.795 69.2214C204.292 66.9676 203.039 64.2129 202.287 60.7069C201.535 57.2009 201.284 52.9436 201.284 47.9351C201.284 42.9265 201.535 38.6693 202.287 35.4137C203.039 31.9077 204.041 29.153 205.795 26.8992C207.299 24.6453 209.555 23.1428 212.562 22.1411C215.569 21.1393 219.078 20.6385 223.339 20.6385C224.842 20.6385 226.597 20.6385 228.602 20.8889C230.607 21.1393 232.361 21.3898 234.115 21.6402C235.87 21.8906 237.624 22.1411 238.877 22.6419L238.376 33.4103C237.373 33.1599 236.12 33.1599 234.867 32.9094C233.363 32.659 231.86 32.659 230.356 32.4086C228.852 32.4086 227.349 32.1581 225.845 32.1581C223.84 32.1581 222.086 32.4086 220.582 32.9094C219.329 33.4103 218.076 34.1616 217.324 35.4137C216.572 36.6658 216.071 38.1684 215.82 40.1718C215.569 42.1752 215.319 44.6795 215.319 47.6846C215.319 50.6898 215.569 53.194 215.82 55.1975C216.071 57.2009 216.572 58.7034 217.324 59.9556C218.076 61.2077 219.078 61.959 220.582 62.4599C221.835 62.9607 223.84 63.2111 225.845 63.2111C227.85 63.2111 230.105 63.2111 232.612 62.9607C235.118 62.7103 237.123 62.7103 238.626 62.4599L238.877 73.2282C237.624 73.4787 236.12 73.7291 234.366 73.9795C232.612 74.2299 230.607 74.4804 228.602 74.7308C226.597 75.4821 224.842 75.4821 222.837 75.4821Z" fill="white"/>
<path d="M244.892 74.4804L257.673 21.8906H279.978L292.76 74.4804H278.725L276.47 65.7154H260.681L258.425 74.4804H244.892ZM262.686 55.1975H274.715L269.954 33.1599H267.197L262.686 55.1975Z" fill="white"/>
<path d="M319.827 75.482C317.572 75.482 315.065 75.2316 312.559 74.9812C310.053 74.7307 307.547 74.4803 305.291 73.9795C303.036 73.4786 301.031 73.2282 299.527 72.9777L300.279 62.2094C302.033 62.4598 303.788 62.4598 306.043 62.7102C308.299 62.9606 310.554 63.2111 312.81 63.4615C315.065 63.7119 317.07 63.7119 318.574 63.7119C320.078 63.7119 321.581 63.4615 322.333 63.2111C323.336 62.9607 324.088 62.2094 324.338 61.7085C324.589 61.2077 325.09 60.2059 325.09 58.9538C325.09 57.9521 324.84 57.2008 324.589 56.7C324.338 56.1991 323.336 55.6983 322.333 55.1974C321.331 54.6965 319.577 54.4461 317.321 54.1957C314.063 53.6948 311.055 52.9436 308.8 52.1923C306.544 51.441 304.539 50.4393 303.286 49.1871C301.783 47.935 300.78 46.4324 300.279 44.6795C299.778 42.9265 299.276 40.6726 299.276 37.9179C299.276 33.4102 300.028 29.9042 301.532 27.6504C303.036 25.1461 305.291 23.3931 308.299 22.6418C311.306 21.6401 314.564 21.1393 318.574 21.1393C320.328 21.1393 322.584 21.1393 324.84 21.3897C327.095 21.6401 329.601 21.8906 331.857 22.141C334.112 22.3914 336.117 22.6418 337.621 22.8923L337.12 33.6607C335.616 33.4102 333.862 33.4102 331.606 33.1598C329.601 32.9094 327.346 32.9094 325.341 32.6589C323.336 32.4085 321.331 32.4085 319.827 32.4085C318.323 32.4085 317.07 32.6589 316.068 32.9094C315.065 33.1598 314.314 33.6607 313.812 34.1615C313.311 34.6624 313.06 35.4136 313.06 36.4154C313.06 37.4171 313.311 38.1683 313.812 38.9196C314.314 39.4205 315.065 39.9213 316.318 40.4222C317.572 40.923 319.075 41.1735 321.331 41.6743C324.589 42.4256 327.596 43.1769 329.852 43.9282C332.107 44.6795 333.862 45.6812 335.365 46.6829C336.619 47.935 337.621 49.1871 338.373 51.1906C338.874 52.9436 339.375 55.1974 339.375 57.9521C339.375 62.2094 338.624 65.7154 337.12 68.2196C335.616 70.7239 333.361 72.7273 330.604 73.729C327.346 74.9812 323.837 75.482 319.827 75.482Z" fill="white"/>
<path d="M348.648 74.4804V21.8906H385.489V33.1599H362.432V42.4257H380.728V53.4445H362.432V63.2111H385.489V74.4804H348.648Z" fill="white"/>
<path d="M212.061 146.603L200.532 104.782H203.54L214.066 143.849H217.825L228.351 104.782H231.358L220.331 146.603H212.061Z" fill="white"/>
<path d="M241.634 146.603V104.782H244.641V146.603H241.634Z" fill="white"/>
<path d="M269.703 147.104C268.701 147.104 267.197 147.104 265.693 146.854C264.19 146.854 262.435 146.603 260.932 146.353C259.428 146.103 257.924 146.103 256.671 145.852L256.922 143.097C258.175 143.097 259.428 143.348 260.932 143.598C262.435 143.849 263.939 143.849 265.443 144.099C266.947 144.099 268.2 144.35 269.202 144.35C271.458 144.35 273.212 144.099 274.716 143.348C276.219 142.597 277.222 141.595 277.974 140.343C278.726 139.091 278.976 137.087 278.976 134.833C278.976 132.83 278.726 131.578 277.974 130.326C277.222 129.324 276.219 128.573 274.716 127.821C273.212 127.321 271.207 126.82 268.951 126.319C266.947 126.068 264.942 125.568 263.438 125.067C261.934 124.566 260.43 124.065 259.428 123.063C258.425 122.312 257.423 121.06 256.922 119.808C256.421 118.556 256.17 116.803 256.17 114.549C256.17 111.794 256.671 109.791 257.674 108.288C258.676 106.786 260.18 105.533 262.185 104.782C264.19 104.031 266.445 103.78 269.202 103.78C270.205 103.78 271.708 103.78 273.212 104.031C274.716 104.031 276.219 104.281 277.723 104.532C279.227 104.782 280.48 104.782 281.482 105.033L281.232 107.787C279.979 107.537 278.726 107.537 277.222 107.286C275.718 107.036 274.214 107.036 272.961 106.786C271.708 106.535 270.455 106.535 269.703 106.535C267.448 106.535 265.693 106.786 264.19 107.286C262.686 107.787 261.433 108.789 260.681 109.791C259.929 110.792 259.428 112.545 259.428 114.298C259.428 116.552 259.929 118.305 260.681 119.307C261.433 120.309 262.686 121.31 264.19 121.811C265.693 122.312 267.949 122.813 270.205 123.314C272.21 123.564 273.964 124.065 275.468 124.566C276.971 125.067 278.224 125.568 279.227 126.569C280.229 127.321 280.981 128.322 281.482 129.574C281.984 130.827 282.234 132.329 282.234 134.333C282.234 137.338 281.733 139.842 280.731 141.845C279.728 143.598 278.224 145.101 276.219 145.852C274.214 146.603 272.46 147.104 269.703 147.104Z" fill="white"/>
<path d="M294.013 146.603V104.782H297.02V146.603H294.013Z" fill="white"/>
<path d="M325.34 147.104C321.08 147.104 317.571 146.353 315.316 144.6C313.06 143.097 311.306 140.593 310.554 137.338C309.802 134.082 309.301 130.326 309.301 125.568C309.301 120.809 309.802 117.053 310.804 113.797C311.807 110.542 313.311 108.038 315.817 106.285C318.072 104.532 321.581 103.78 325.842 103.78C330.102 103.78 333.36 104.532 335.866 106.285C338.122 108.038 339.876 110.542 340.879 113.797C341.881 117.053 342.382 121.06 342.382 125.568C342.382 130.326 341.881 134.333 341.129 137.588C340.127 140.844 338.623 143.097 336.368 144.6C333.11 146.353 329.601 147.104 325.34 147.104ZM325.34 144.6C329.1 144.6 331.856 143.849 333.611 142.597C335.365 141.345 336.618 139.091 337.37 136.586C338.122 133.832 338.373 130.326 338.373 126.068C338.373 122.062 338.122 118.556 337.37 115.801C336.618 113.046 335.365 110.792 333.611 109.29C331.606 107.787 329.1 107.036 325.34 107.036C321.832 107.036 319.075 107.787 317.07 109.29C315.316 110.792 313.812 112.796 313.311 115.801C312.559 118.556 312.308 122.062 312.308 126.068C312.308 130.075 312.559 133.581 313.311 136.336C314.063 139.091 315.316 141.094 317.07 142.597C319.075 143.849 321.832 144.6 325.34 144.6Z" fill="white"/>
<path d="M353.66 146.603V104.782H359.926L378.471 143.849H379.975V104.782H382.983V146.603H376.717L358.171 107.537H356.668V146.603H353.66Z" fill="white"/>
</svg>
