<svg width="16" height="16" viewBox="0 0 16 16" fill="none" xmlns="http://www.w3.org/2000/svg">
<path d="M9.33268 7.3335H5.33268M6.66601 10.0002H5.33268M10.666 4.66683H5.33268M13.3327 4.5335V11.4668C13.3327 12.5869 13.3327 13.147 13.1147 13.5748C12.9229 13.9511 12.617 14.2571 12.2407 14.4488C11.8128 14.6668 11.2528 14.6668 10.1327 14.6668H5.86601C4.74591 14.6668 4.18586 14.6668 3.75803 14.4488C3.38171 14.2571 3.07575 13.9511 2.884 13.5748C2.66602 13.147 2.66602 12.5869 2.66602 11.4668V4.5335C2.66602 3.41339 2.66602 2.85334 2.884 2.42552C3.07575 2.04919 3.38171 1.74323 3.75803 1.55148C4.18586 1.3335 4.74591 1.3335 5.86601 1.3335H10.1327C11.2528 1.3335 11.8128 1.3335 12.2407 1.55148C12.617 1.74323 12.9229 2.04919 13.1147 2.42552C13.3327 2.85334 13.3327 3.41339 13.3327 4.5335Z" stroke="black" stroke-width="2" stroke-linecap="round" stroke-linejoin="round"/>
</svg>
