<svg width="15" height="22" viewBox="0 0 15 22" fill="none" xmlns="http://www.w3.org/2000/svg">
<path d="M4.96723 15.2228C5.07642 15.9008 4.92356 16.9112 4.34485 18.9452C3.76615 20.9792 3.41675 23.8109 0.818049 20.4475C-1.73697 17.1372 2.42313 14.7575 3.37307 14.2258C4.57415 13.561 4.84712 14.5448 4.96723 15.2228Z" fill="url(#paint0_linear_5139_4874)"/>
<path d="M3.41112 14.9915C3.41112 14.9915 3.41112 15.3751 3.68509 15.5942C3.95906 15.8134 4.34263 15.5942 4.34263 15.5942L6.91797 12.1148L5.6577 11.3477L3.41112 14.9915Z" fill="url(#paint1_linear_5139_4874)"/>
<path d="M6.36968 12.3338C8.50666 13.4571 10.9176 13.1831 12.0957 11.7859C12.0409 12.0324 11.9587 12.2516 11.8491 12.4708C10.9176 14.2242 8.23269 14.6352 5.84913 13.3749C3.46557 12.1146 2.26009 9.67626 3.1642 7.92284C3.24639 7.73106 3.38338 7.56667 3.52036 7.42969C3.1094 9.18311 4.26009 11.2379 6.36968 12.3338Z" fill="url(#paint2_linear_5139_4874)"/>
<path d="M6.3697 12.3614C4.28751 11.2655 3.13682 9.21075 3.52039 7.45733C4.64367 6.14226 7.02724 5.92308 9.19162 7.04637C11.2738 8.14226 12.4519 10.1423 12.1231 11.8135C10.9176 13.2108 8.50669 13.4847 6.3697 12.3614Z" fill="url(#paint3_linear_5139_4874)"/>
<path d="M13.3027 4.44329C13.3027 4.44329 11.8507 5.73096 10.7274 9.51179C10.7274 9.51179 9.6315 10.6899 7.79589 9.64877C6.01506 8.63507 6.39862 7.18302 6.39862 7.18302C6.39862 7.18302 9.33013 3.86795 9.38493 1.97754C9.41232 1.97754 12.6452 2.74466 13.3027 4.44329Z" fill="url(#paint4_linear_5139_4874)"/>
<path d="M8.39771 1.15595C7.74018 2.41622 8.64429 4.16965 10.3977 5.10115C12.1511 6.03266 14.1237 5.75869 14.7813 4.49841C15.4388 3.23814 14.5347 1.48472 12.7813 0.553209C11.0005 -0.378298 9.05525 -0.104326 8.39771 1.15595Z" fill="url(#paint5_linear_5139_4874)"/>
<path d="M8.42476 1.07334C7.90421 2.08704 8.89051 3.67608 10.6713 4.58019C12.4522 5.5117 14.3152 5.4295 14.8357 4.4158C15.3563 3.40211 14.5343 1.4843 12.7809 0.552791C11.0001 -0.378716 8.9727 0.032243 8.42476 1.07334Z" fill="url(#paint6_linear_5139_4874)"/>
<path d="M9.43953 0.470991C9.08336 1.15592 10.1793 2.4162 11.4395 3.07373C12.7272 3.73126 14.371 3.84085 14.7272 3.15592C15.0834 2.47099 14.0971 1.29291 12.8368 0.635374C11.5765 -0.0221599 9.82309 -0.213941 9.43953 0.470991Z" fill="url(#paint7_linear_5139_4874)"/>
<path d="M11.7129 5.01929C11.7129 5.01929 10.4526 4.49874 9.54851 3.70422C8.6444 2.9371 8.48001 2.36176 8.34303 2.14258C8.37043 2.14258 8.617 3.9234 11.7129 5.01929Z" fill="url(#paint8_linear_5139_4874)"/>
<path d="M6.17773 12.1973C6.17773 12.1973 5.05445 11.4302 4.31472 10.4713C3.60239 9.53974 3.5202 8.93701 3.46541 8.69043C3.46541 8.69043 3.35582 10.4986 6.17773 12.1973Z" fill="url(#paint9_linear_5139_4874)"/>
<path d="M4.781 7.21104C4.39744 7.29323 4.781 8.22474 4.91799 8.6357C5.05497 9.04665 5.52073 10.0878 5.68511 10.033C5.84949 9.97816 5.68511 8.88227 5.54812 8.47131C5.41114 8.03296 5.27415 7.10145 4.781 7.21104Z" fill="white"/>
<path d="M5.79585 10.1152C5.74105 10.1426 5.76845 10.3892 5.82324 10.5262C5.87804 10.6632 6.01503 10.9919 6.06982 10.9919C6.12461 10.9645 6.04242 10.6358 5.98763 10.4988C5.96023 10.3618 5.85064 10.1152 5.79585 10.1152Z" fill="white"/>
<path d="M8.80952 1.29297C8.75473 1.32037 8.78212 1.56694 8.83692 1.70393C8.89171 1.84091 9.0287 2.16968 9.08349 2.16968C9.13829 2.14228 9.0561 1.81352 9.0013 1.67653C8.9739 1.53954 8.86431 1.29297 8.80952 1.29297Z" fill="white"/>
<path d="M9.13674 2.2794C9.10935 2.2794 9.13674 2.44378 9.16414 2.52597C9.19154 2.60817 9.27373 2.79995 9.30113 2.79995C9.32852 2.79995 9.27373 2.60817 9.24633 2.52597C9.21893 2.41639 9.16414 2.252 9.13674 2.2794Z" fill="white"/>
<defs>
<linearGradient id="paint0_linear_5139_4874" x1="5.17683" y1="11.9078" x2="-2.3173" y2="23.3095" gradientUnits="userSpaceOnUse">
<stop offset="0.2144" stop-color="#BABCBE"/>
<stop offset="0.3095" stop-color="#D5D6D8"/>
<stop offset="0.4156" stop-color="#ECEDED"/>
<stop offset="0.5156" stop-color="#FAFAFA"/>
<stop offset="0.602" stop-color="white"/>
</linearGradient>
<linearGradient id="paint1_linear_5139_4874" x1="10.6228" y1="5.72056" x2="3.17378" y2="16.0845" gradientUnits="userSpaceOnUse">
<stop offset="0.5287" stop-color="#272425"/>
<stop offset="0.985" stop-color="#BABCBE"/>
</linearGradient>
<linearGradient id="paint2_linear_5139_4874" x1="15.3661" y1="4.18961" x2="3.39763" y2="13.4023" gradientUnits="userSpaceOnUse">
<stop offset="0.1064" stop-color="#5DA357"/>
<stop offset="0.3696" stop-color="#5CA056"/>
<stop offset="0.5374" stop-color="#5A9855"/>
<stop offset="0.6784" stop-color="#568952"/>
<stop offset="0.8047" stop-color="#50744E"/>
<stop offset="0.92" stop-color="#495949"/>
<stop offset="1" stop-color="#434244"/>
</linearGradient>
<linearGradient id="paint3_linear_5139_4874" x1="13.3799" y1="5.33852" x2="1.41133" y2="14.5512" gradientUnits="userSpaceOnUse">
<stop offset="0.3625" stop-color="#5DA357"/>
<stop offset="0.4705" stop-color="#5B9C56"/>
<stop offset="0.6244" stop-color="#568A52"/>
<stop offset="0.8057" stop-color="#4E6B4C"/>
<stop offset="1" stop-color="#434244"/>
</linearGradient>
<linearGradient id="paint4_linear_5139_4874" x1="3.97669" y1="10.9036" x2="14.3367" y2="2.16953" gradientUnits="userSpaceOnUse">
<stop offset="0.1064" stop-color="#5DA357"/>
<stop offset="0.2662" stop-color="#5C9E56"/>
<stop offset="0.461" stop-color="#588F53"/>
<stop offset="0.674" stop-color="#51764E"/>
<stop offset="0.8985" stop-color="#485448"/>
<stop offset="1" stop-color="#434244"/>
</linearGradient>
<linearGradient id="paint5_linear_5139_4874" x1="18.0416" y1="0.807173" x2="5.45799" y2="4.74625" gradientUnits="userSpaceOnUse">
<stop offset="0.2846" stop-color="#5DA357"/>
<stop offset="0.4093" stop-color="#5B9A55"/>
<stop offset="0.6158" stop-color="#548050"/>
<stop offset="0.877" stop-color="#495848"/>
<stop offset="1" stop-color="#434244"/>
</linearGradient>
<linearGradient id="paint6_linear_5139_4874" x1="16.2836" y1="1.23706" x2="4.28244" y2="4.99383" gradientUnits="userSpaceOnUse">
<stop offset="0.2846" stop-color="#5DA357"/>
<stop offset="0.4093" stop-color="#5B9A55"/>
<stop offset="0.6158" stop-color="#548050"/>
<stop offset="0.877" stop-color="#495848"/>
<stop offset="1" stop-color="#434244"/>
</linearGradient>
<linearGradient id="paint7_linear_5139_4874" x1="14.8046" y1="-0.269041" x2="9.3249" y2="3.94894" gradientUnits="userSpaceOnUse">
<stop offset="0.2637" stop-color="#5DA357"/>
<stop offset="0.3953" stop-color="#5C9E56"/>
<stop offset="0.5558" stop-color="#588F53"/>
<stop offset="0.7313" stop-color="#51764E"/>
<stop offset="0.9163" stop-color="#485448"/>
<stop offset="1" stop-color="#434244"/>
</linearGradient>
<linearGradient id="paint8_linear_5139_4874" x1="9.03484" y1="4.43327" x2="10.326" y2="3.34478" gradientUnits="userSpaceOnUse">
<stop offset="0.3284" stop-color="white"/>
<stop offset="0.4312" stop-color="#CDE3CB"/>
<stop offset="0.5662" stop-color="#91C08D"/>
<stop offset="0.6652" stop-color="#6BAB66"/>
<stop offset="0.7168" stop-color="#5DA357"/>
</linearGradient>
<linearGradient id="paint9_linear_5139_4874" x1="3.66567" y1="11.0762" x2="5.15073" y2="10.2721" gradientUnits="userSpaceOnUse">
<stop offset="0.3284" stop-color="white"/>
<stop offset="0.4381" stop-color="#CDE3CB"/>
<stop offset="0.5822" stop-color="#91C08D"/>
<stop offset="0.6878" stop-color="#6BAB66"/>
<stop offset="0.7429" stop-color="#5DA357"/>
</linearGradient>
</defs>
</svg>
