<svg width="15" height="20" viewBox="0 0 15 20" fill="none" xmlns="http://www.w3.org/2000/svg">
<g filter="url(#filter0_f_1618_1126)">
<ellipse cx="7.26975" cy="17.1344" rx="2.42307" ry="0.865382" fill="black" fill-opacity="0.2"/>
</g>
<path fill-rule="evenodd" clip-rule="evenodd" d="M7.26921 0C11.2839 0 14.5384 3.25453 14.5384 7.26921C14.5384 10.3474 12.6251 12.9787 9.92293 14.0388L7.68324 17.1002C7.63655 17.1643 7.57455 17.2166 7.50249 17.2527C7.43043 17.2888 7.35041 17.3076 7.26921 17.3076C7.188 17.3076 7.10799 17.2888 7.03592 17.2527C6.96386 17.2166 6.90186 17.1643 6.85517 17.1002L4.61548 14.0388C1.91327 12.9787 0 10.3474 0 7.26921C0 3.25453 3.25453 0 7.26921 0Z" fill="#FD9C42"/>
<path d="M10.3841 7.26869C10.3841 5.54812 8.98927 4.15332 7.26869 4.15332C5.54812 4.15332 4.15332 5.54812 4.15332 7.26869C4.15332 8.98927 5.54812 10.3841 7.26869 10.3841C8.98927 10.3841 10.3841 8.98927 10.3841 7.26869Z" fill="#BF6510"/>
<defs>
<filter id="filter0_f_1618_1126" x="2.84668" y="14.269" width="8.84619" height="5.73096" filterUnits="userSpaceOnUse" color-interpolation-filters="sRGB">
<feFlood flood-opacity="0" result="BackgroundImageFix"/>
<feBlend mode="normal" in="SourceGraphic" in2="BackgroundImageFix" result="shape"/>
<feGaussianBlur stdDeviation="1" result="effect1_foregroundBlur_1618_1126"/>
</filter>
</defs>
</svg>
