<svg width="20" height="20" viewBox="0 0 20 20" fill="none" xmlns="http://www.w3.org/2000/svg">
<g clip-path="url(#clip0_3085_2940)">
<path d="M15.0003 5.83317V4.33317C15.0003 3.39975 15.0003 2.93304 14.8187 2.57652C14.6589 2.26292 14.4039 2.00795 14.0903 1.84816C13.7338 1.6665 13.2671 1.6665 12.3337 1.6665H7.66699C6.73357 1.6665 6.26686 1.6665 5.91034 1.84816C5.59674 2.00795 5.34177 2.26292 5.18198 2.57652C5.00033 2.93304 5.00033 3.39975 5.00033 4.33317V5.83317M5.00033 14.9998C4.22535 14.9998 3.83786 14.9998 3.51994 14.9147C2.65721 14.6835 1.98335 14.0096 1.75218 13.1469C1.66699 12.829 1.66699 12.4415 1.66699 11.6665V9.83317C1.66699 8.43304 1.66699 7.73297 1.93948 7.19819C2.17916 6.72779 2.56161 6.34534 3.03202 6.10565C3.5668 5.83317 4.26686 5.83317 5.66699 5.83317H14.3337C15.7338 5.83317 16.4339 5.83317 16.9686 6.10565C17.439 6.34534 17.8215 6.72779 18.0612 7.19819C18.3337 7.73297 18.3337 8.43304 18.3337 9.83317V11.6665C18.3337 12.4415 18.3337 12.829 18.2485 13.1469C18.0173 14.0096 17.3434 14.6835 16.4807 14.9147C16.1628 14.9998 15.7753 14.9998 15.0003 14.9998M12.5003 8.74984H15.0003M7.66699 18.3332H12.3337C13.2671 18.3332 13.7338 18.3332 14.0903 18.1515C14.4039 17.9917 14.6589 17.7368 14.8187 17.4232C15.0003 17.0666 15.0003 16.5999 15.0003 15.6665V14.3332C15.0003 13.3997 15.0003 12.933 14.8187 12.5765C14.6589 12.2629 14.4039 12.0079 14.0903 11.8482C13.7338 11.6665 13.2671 11.6665 12.3337 11.6665H7.66699C6.73357 11.6665 6.26686 11.6665 5.91034 11.8482C5.59674 12.0079 5.34177 12.2629 5.18198 12.5765C5.00033 12.933 5.00033 13.3997 5.00033 14.3332V15.6665C5.00033 16.5999 5.00033 17.0666 5.18198 17.4232C5.34177 17.7368 5.59674 17.9917 5.91034 18.1515C6.26686 18.3332 6.73357 18.3332 7.66699 18.3332Z" stroke="#5BAAF2" stroke-width="2" stroke-linecap="round" stroke-linejoin="round"/>
</g>
<defs>
<clipPath id="clip0_3085_2940">
<rect width="20" height="20" fill="white"/>
</clipPath>
</defs>
</svg>
